<?xml version="1.0" encoding="UTF-8" standalone="no"?>
<!DOCTYPE svg PUBLIC "-//W3C//DTD SVG 1.1//EN" "http://www.w3.org/Graphics/SVG/1.1/DTD/svg11.dtd">
<svg width="100%" height="100%" viewBox="0 0 474 448" version="1.1" xmlns="http://www.w3.org/2000/svg" xmlns:xlink="http://www.w3.org/1999/xlink" xml:space="preserve" xmlns:serif="http://www.serif.com/" style="fill-rule:evenodd;clip-rule:evenodd;stroke-linejoin:round;stroke-miterlimit:2;">
    <g transform="matrix(1,0,0,1,-19.2984,-30.1108)">
        <g transform="matrix(0.5,0,0,0.5,0,0)">
            <path d="M509.356,60.222L523.5,60.644C547.121,62.907 571.111,76.682 586.055,94.818C596.165,92.209 605.892,90.762 616.345,91.793C636.14,93.746 654.439,103.77 666.914,119.25C678.852,134.064 684.489,152.979 682.579,171.838C695.02,176.691 706.951,183.441 718.588,189.948C790.101,229.934 849.209,291.797 885.228,365.441C903.624,403.052 916.447,443.285 922.658,484.719C924.18,494.868 924.796,505.032 925.52,515.25C928.476,556.953 925.305,597.978 915.838,638.734C911.748,656.341 905.877,673.739 899.99,690.817L912.38,694.352L886.94,749.657C894.911,751.588 902.772,754.262 910.6,756.695C936.069,764.612 960.656,774.202 985.012,785.015C983.195,787.3 958.583,798.758 953.652,801.278L911.393,823.469L931.087,904.022C896.356,886.764 859.221,873.729 821.995,863.041L785.752,853.651C784.794,853.364 773.8,862.837 771.868,864.342L748.466,881.625C678.042,929.944 594.357,954.173 509.184,954.658C430.472,953.958 351.266,931.063 284.965,888.398C267.941,877.444 252.426,865.108 236.867,852.219L207.861,860.623C168.287,872.388 129.384,886.548 92.041,904.243C96.208,876.376 105.292,849.347 113.938,822.622L38.597,785.419L137.187,749.033L111.39,694.652L123.464,691.198C123.712,690.011 117.836,674.906 116.978,672.292C112.229,657.816 108.619,642.703 105.451,627.797C90.558,557.722 95.01,480.549 118.418,412.834C148.493,325.836 208.07,250.089 286.165,201.237C303.949,190.112 322.543,181.406 341.352,172.263L340.885,166.675C339.612,148.665 347.014,128.79 358.955,115.423C374.559,97.957 398.876,87.928 422.336,91.829C425.861,92.415 429.312,93.078 432.742,94.097C433.808,94.414 437.388,96.086 438.253,95.993C438.309,95.987 439.706,94.475 439.8,94.378C445.212,88.748 450.733,82.857 457.101,78.305C472.885,67.023 490.013,61.189 509.356,60.222Z" style="fill:rgb(38,15,0);fill-rule:nonzero;"/>
        </g>
        <g transform="matrix(0.5,0,0,0.5,0,0)">
            <path d="M383.661,382.75C388.035,381.634 392.657,383.68 396.687,385.21C397.918,397.173 397.43,409.258 398.777,421.234C399.172,424.749 401.854,431.633 400.883,434.812L398.461,433.852C394.866,431.966 391.767,429.595 389.318,426.325C383.502,418.562 377.29,396.075 379.627,386.768C380.175,384.588 381.77,383.646 383.661,382.75Z" style="fill:rgb(238,205,160);fill-rule:nonzero;"/>
        </g>
        <g transform="matrix(0.5,0,0,0.5,0,0)">
            <path d="M386.664,394.25C389.786,393.737 393.389,396.947 395.84,398.689L395.052,399.063C393.369,399.949 392.472,402.043 392.016,403.797C390.583,409.305 392.655,415.992 395.502,420.75L396.348,422L396,422.367C394.522,421.309 393.278,419.914 392.25,418.418C389.672,414.667 388.7,408.716 389.786,404.262C390.306,402.129 391.425,400.191 391.848,398.034C390.287,396.978 388.553,395.959 387.151,394.698L386.664,394.25Z" style="fill:rgb(1,0,0);fill-rule:nonzero;"/>
        </g>
        <g transform="matrix(0.5,0,0,0.5,0,0)">
            <path d="M638.254,382.128C639.045,382.086 639.519,382.332 640.25,382.606C642.816,385.638 642.847,391.871 642.913,395.814C643.199,412.739 636.415,426.603 624.846,438.441C624.076,439.134 623.261,439.698 622.416,440.294C621.485,439.037 623.003,431.251 623.186,429.285C624.47,415.501 624.339,401.395 623.511,387.591C626.806,384.318 633.83,382.891 638.254,382.128Z" style="fill:rgb(238,205,160);fill-rule:nonzero;"/>
        </g>
        <g transform="matrix(0.5,0,0,0.5,0,0)">
            <path d="M630.255,394.25L630.628,394.114C631.561,393.86 633.047,393.809 633.867,394.305C635.206,395.113 635.998,396.455 636.44,397.929C638.283,404.072 635.268,413.853 632.321,419.25C631.856,418.092 632.265,417.101 632.476,415.892L634.546,406.123C635.056,402.33 635.148,399.049 632.75,395.898C630.2,395.695 626.504,397.785 624.033,398.749C626.039,396.938 627.906,395.586 630.255,394.25Z" style="fill:rgb(1,0,0);fill-rule:nonzero;"/>
        </g>
        <g transform="matrix(0.5,0,0,0.5,0,0)">
            <path d="M713.19,579.802L716.003,574.218C732.653,581.342 743.248,601.315 751.11,616.701C755.065,624.44 758.915,632.188 762.147,640.266L769.331,661.229L745.751,657.711C739.449,629.941 729.277,603.425 713.19,579.802Z" style="fill:rgb(254,254,254);fill-rule:nonzero;"/>
        </g>
        <g transform="matrix(0.5,0,0,0.5,0,0)">
            <path d="M307.671,580.007L330.115,650.464L287.888,656.157C287.9,650.366 289.825,644.158 290.979,638.5C293.625,625.525 296.014,612.588 299.804,599.872C301.793,593.196 304.115,586.013 307.671,580.007Z" style="fill:rgb(238,205,160);fill-rule:nonzero;"/>
        </g>
        <g transform="matrix(0.5,0,0,0.5,0,0)">
            <path d="M639.073,238.673L650.706,242.614C652.559,243.266 654.917,243.89 656.476,245.085L656.503,346.241L638.569,339.654L639.073,238.673Z" style="fill:rgb(203,53,40);fill-rule:nonzero;"/>
        </g>
        <g transform="matrix(0.5,0,0,0.5,0,0)">
            <path d="M287.888,656.157L248.369,662.73C257.347,640.34 268.271,619.061 279.988,598L286.27,587.183C287.1,585.863 287.765,584.51 289.104,583.636C292.676,581.306 297.498,579.787 301.461,578.183C302.866,577.615 305.036,576.352 306.548,576.75L307.671,580.007C304.115,586.013 301.793,593.196 299.804,599.872C296.014,612.588 293.625,625.525 290.979,638.5C289.825,644.158 287.9,650.366 287.888,656.157Z" style="fill:rgb(254,254,254);fill-rule:nonzero;"/>
        </g>
        <g transform="matrix(0.5,0,0,0.5,0,0)">
            <path d="M583.563,517.25C584.191,517.342 583.849,517.227 584.525,517.75L584.919,540.341C583.357,541.719 579.561,542.654 577.539,543.507L541.577,557.377L508.471,569.38C497.614,565.881 486.378,563.764 475.638,559.81C466.947,556.611 458.503,552.776 450.394,548.303L435.281,539.389L435.429,521.875C435.418,520.862 435.439,520.09 435.75,519.121C447.434,530.313 462.905,540.157 478.331,545.123C481.541,546.156 484.819,546.847 488.108,547.572C489.239,547.821 491.148,548.069 492.131,548.659C494.349,549.99 497.195,554.702 498.897,556.783L509.4,568.571C515.392,563 520.404,556.117 527.118,551.326C534.951,545.738 543.934,542.637 552.5,538.4C563.953,532.734 573.791,525.404 583.563,517.25Z" style="fill:rgb(254,254,254);fill-rule:nonzero;"/>
        </g>
        <g transform="matrix(0.5,0,0,0.5,0,0)">
            <path d="M713.19,579.802C729.277,603.425 739.449,629.941 745.751,657.711L694.854,650.92C695.184,644.659 696.603,638.359 697.814,632.218C701.39,614.077 706.352,596.99 713.19,579.802Z" style="fill:rgb(238,205,160);fill-rule:nonzero;"/>
        </g>
        <g transform="matrix(0.5,0,0,0.5,0,0)">
            <path d="M385.557,236.079L385.242,341.801L355.898,354.99L355.624,251.206L385.557,236.079Z" style="fill:rgb(203,53,40);fill-rule:nonzero;"/>
        </g>
        <g transform="matrix(0.5,0,0,0.5,0,0)">
            <path d="M144.371,768.25L145.592,768.474L171.504,824.5C171.843,825.206 172.676,827.39 173.166,827.807C174.375,828.837 178.335,829.575 179.929,830.152L203.706,838.891L128.378,865.252L121.561,867.982L140.913,811.985C124.999,802.428 107.224,793.767 89.78,787.478C97.226,783.922 104.948,781.306 112.73,778.599L144.371,768.25Z" style="fill:rgb(167,35,25);fill-rule:nonzero;"/>
        </g>
        <g transform="matrix(0.5,0,0,0.5,0,0)">
            <path d="M878.543,769.359L913.434,779.929C919.411,781.93 925.512,783.756 931.226,786.446L885.989,812.18L900.875,867.077L887.355,861.311L813.488,838.721C814.506,837.768 816.815,837.155 818.129,836.598L831.229,831.185L846.546,825.266C848.426,824.535 851.587,823.691 853.187,822.533C855.722,820.697 875.804,775.354 878.543,769.359Z" style="fill:rgb(141,60,7);fill-rule:nonzero;"/>
        </g>
        <g transform="matrix(0.5,0,0,0.5,0,0)">
            <path d="M656.499,432.517L656.525,537.349C646.242,534.326 634.4,533.345 623.75,532.031L591.525,527.892L591.518,513.3C591.5,511.844 591.129,509.03 591.639,507.751C592.187,506.378 594.212,504.37 595.142,503.129L603.863,490.681C609.893,481.17 613.96,470.983 618.013,460.537L624.75,459.469C638.011,456.144 649.686,443.841 656.499,432.517Z" style="fill:rgb(176,21,11);fill-rule:nonzero;"/>
        </g>
        <g transform="matrix(0.5,0,0,0.5,0,0)">
            <path d="M355.46,537.481L355.854,378.987L362.449,379.121C357.379,396.015 361.198,415.583 369.519,430.899C375.09,441.154 383.281,449.951 394.757,453.332L398.177,454.192C405.018,477.134 415.417,500.329 433.299,516.881L355.46,537.481Z" style="fill:rgb(203,53,40);fill-rule:nonzero;"/>
        </g>
        <g transform="matrix(0.5,0,0,0.5,0,0)">
            <path d="M509.593,321.979C474.298,321.758 439.848,326.635 405.331,333.58L405.159,281.178C414.235,278.654 423.974,277.376 433.283,275.991C458.718,272.207 483.834,270.238 509.553,270.373L509.593,321.979Z" style="fill:rgb(95,162,69);fill-rule:nonzero;"/>
        </g>
        <g transform="matrix(0.5,0,0,0.5,0,0)">
            <path d="M509.553,270.373C546.405,270.53 584.072,272.99 619.998,281.68L619.988,334.811C583.763,326.037 546.835,322.093 509.593,321.979L509.553,270.373Z" style="fill:rgb(37,99,38);fill-rule:nonzero;"/>
        </g>
        <g transform="matrix(0.5,0,0,0.5,0,0)">
            <path d="M494.412,639.359L478.019,640.368L478.143,590.139L574.715,553.704L586.632,548.987C587.671,548.574 589.67,547.477 590.726,547.377C591.335,547.32 592.996,547.858 593.637,547.982L601.082,549.373L633.042,555.022C597.329,596.252 549.653,631.667 494.412,639.359Z" style="fill:rgb(95,162,69);fill-rule:nonzero;"/>
        </g>
        <g transform="matrix(0.5,0,0,0.5,0,0)">
            <path d="M501.722,597.117C504.07,597.239 506.342,597.362 508.491,598.41C511.729,599.991 514.473,602.68 515.538,606.178C516.486,609.292 516.233,613.059 514.686,615.939C512.486,620.03 508.911,621.738 504.647,622.904C501.916,622.873 499.156,622.658 496.701,621.348C493.678,619.735 491.785,616.943 490.906,613.682C489.906,609.973 490.702,606.274 492.715,603.07C494.802,599.749 498.011,598.032 501.722,597.117Z" style="fill:rgb(38,15,0);fill-rule:nonzero;"/>
        </g>
        <g transform="matrix(0.5,0,0,0.5,0,0)">
            <path d="M853.04,699.058L880.975,705.27L845.095,783.146L839.23,795.755C838.208,798.059 837.285,800.961 835.86,803.006L690.945,773.068L692.965,772.934L693.72,772.888C698.181,772.395 703.18,770.346 707.5,769.001C714.77,766.737 723.131,764.789 729.901,761.338C731.268,760.641 732.175,759.543 733.132,758.376C735.627,758.747 739.99,759.963 742.19,758.757L741.981,757.716C745.158,755.445 750.054,754.216 753.736,752.767L770.366,745.828C794.548,735.421 818.432,723.688 840,708.514C844.38,705.432 848.964,702.536 853.04,699.058Z" style="fill:rgb(203,53,40);fill-rule:nonzero;"/>
        </g>
        <g transform="matrix(0.5,0,0,0.5,0,0)">
            <path d="M296.091,800.617L296.799,800.368C300.108,799.258 304.248,799.159 307.725,798.625L340.06,793.891C343.493,793.37 348.959,791.72 352.25,792.064C352.979,792.14 353.079,792.239 353.65,792.521L384.089,819.732L384.943,819.548C381.953,830.104 382.236,841.743 382.765,852.616L382.977,852.829C383.175,858.406 384.41,862.769 386.565,867.926L393.086,870.563C396.99,876.399 403.677,880.904 408.955,885.509L426.741,901.069C429.907,903.66 444.668,914.431 445.367,917.191C382.386,907.06 322.903,878.811 273.015,839.419C262.245,830.915 251.253,821.941 241.855,811.952L280.46,803.713L296.091,800.617Z" style="fill:rgb(38,99,42);fill-rule:nonzero;"/>
        </g>
        <g transform="matrix(0.5,0,0,0.5,0,0)">
            <path d="M296.091,800.617C322.02,822.613 351.245,839.916 382.765,852.616L382.977,852.829C383.175,858.406 384.41,862.769 386.565,867.926L383.75,866.973C350.449,854.21 318.107,836.367 290.604,813.461C287.669,811.016 281.981,807.149 280.46,803.713L296.091,800.617Z" style="fill:rgb(244,227,202);fill-rule:nonzero;"/>
        </g>
        <g transform="matrix(0.5,0,0,0.5,0,0)">
            <path d="M296.091,800.617L296.799,800.368C300.108,799.258 304.248,799.159 307.725,798.625L340.06,793.891C343.493,793.37 348.959,791.72 352.25,792.064C352.979,792.14 353.079,792.239 353.65,792.521L384.089,819.732L384.943,819.548C381.953,830.104 382.236,841.743 382.765,852.616C351.245,839.916 322.02,822.613 296.091,800.617Z" style="fill:rgb(176,21,11);fill-rule:nonzero;"/>
        </g>
        <g transform="matrix(0.5,0,0,0.5,0,0)">
            <path d="M633.042,555.022C658.14,559.337 685.074,563.29 708.997,572.239C697.148,596.339 689.882,623.461 686.874,650.138L624.502,644.406L555.225,640.622L514.935,639.814C508.286,639.742 500.934,640.491 494.412,639.359C549.653,631.667 597.329,596.252 633.042,555.022Z" style="fill:rgb(37,99,38);fill-rule:nonzero;"/>
        </g>
        <g transform="matrix(0.5,0,0,0.5,0,0)">
            <path d="M649.993,226.423L650.576,226.071C660.211,220.163 667.394,212.14 673.745,202.898C691.09,210.168 707.535,220.162 723.185,230.541C736.661,239.477 749.88,248.898 762.147,259.455C808.454,299.306 844.098,350.145 867.198,406.592C875.065,425.815 880.862,445.709 885.444,465.946C886.655,471.299 888.286,476.978 888.653,482.447L832.095,403.811L830.738,403.966C830.361,403.661 829.727,401.921 829.483,401.399L825.352,392.516C820.442,382.373 814.791,372.476 808.892,362.877C780.695,316.99 740.819,277.308 694.55,249.75L664.475,233.398L649.993,226.423Z" style="fill:rgb(38,99,42);fill-rule:nonzero;"/>
        </g>
        <g transform="matrix(0.5,0,0,0.5,0,0)">
            <path d="M664.169,393.119C669.576,395.529 674.194,399.84 678.951,403.321L739.849,451.127L739.626,452.985L739.541,561.86C730.33,555.593 719.758,552.673 709.187,549.571C691.815,544.473 674.322,540.621 656.525,537.349L656.499,432.517C657.117,429.27 659.212,425.613 660.281,422.377C663.504,412.623 664.299,403.358 664.169,393.119Z" style="fill:rgb(238,205,160);fill-rule:nonzero;"/>
        </g>
        <g transform="matrix(0.5,0,0,0.5,0,0)">
            <path d="M427.431,543.663C430.638,546.242 434.256,548.424 437.702,550.67C455.233,562.093 474.144,569.695 494.369,574.871L469.483,583.832L469.088,640.552L376.378,646.115L337.911,649.999L313.683,573.359L427.431,543.663Z" style="fill:rgb(95,162,69);fill-rule:nonzero;"/>
        </g>
        <g transform="matrix(0.5,0,0,0.5,0,0)">
            <path d="M189.436,674.404L156.997,681.779C123.117,595.985 121.532,497.661 154.707,411.281C189.59,320.454 261.619,243.072 350.767,203.498C355.748,213.111 365.243,221.947 374.803,226.945L375.193,227.144C359.679,232.997 344.673,241.371 330.481,249.872C304.366,265.517 280.055,283.909 258.633,305.593C231.89,332.663 208.72,366.645 193.112,401.329C156.638,482.381 151.566,577.066 183.349,660.542C184.82,664.405 186.633,671.502 189.436,674.404Z" style="fill:rgb(38,99,42);fill-rule:nonzero;"/>
        </g>
        <g transform="matrix(0.5,0,0,0.5,0,0)">
            <path d="M370.573,791.561C373.82,790.364 377.924,790.457 381.37,790.138L401.335,788.308L501.635,783.032L602.32,786.918L632.056,789.658C637.895,790.219 644.084,790.395 649.8,791.673C653.158,791.543 656.45,792.427 659.75,792.97L670.946,794.691C659.681,805.092 648.851,814.537 635,821.405C631.176,823.301 627.1,825.378 622.946,826.403C619.346,827.291 615.878,830.62 612.919,832.835L599.312,842.669L580.024,855.297C567.366,863.179 553.739,869.079 540.964,876.612C538.477,877.578 513.844,887.32 513.5,887.893C512.843,888.037 511.624,888.488 511,888.439C509.32,888.309 505.698,886.314 503.896,885.642L480.419,876.033C450.498,874.897 422.6,866.766 394.476,857.189L382.977,852.829L382.765,852.616C382.236,841.743 381.953,830.104 384.943,819.548L384.089,819.732L353.65,792.521L354.341,792.131C355.611,791.772 357.674,791.952 359.023,791.878C362.01,791.715 367.963,790.427 370.573,791.561Z" style="fill:rgb(238,205,160);fill-rule:nonzero;"/>
        </g>
        <g transform="matrix(0.5,0,0,0.5,0,0)">
            <path d="M400.574,816.208C405.2,815.395 410.651,816.584 415.294,817.132L435.562,819.341L480.002,823.288L523.628,827.005C529.493,827.51 536.174,827.434 541.903,828.583C535.264,832.268 529.132,836.064 523.75,841.543C516.301,849.128 511.733,859.606 508.875,869.716L506.559,881.394C468.82,864.602 433.091,841.604 400.574,816.208Z" style="fill:rgb(254,254,254);fill-rule:nonzero;"/>
        </g>
        <g transform="matrix(0.5,0,0,0.5,0,0)">
            <path d="M353.65,792.521L354.341,792.131C355.611,791.772 357.674,791.952 359.023,791.878C362.01,791.715 367.963,790.427 370.573,791.561L394.95,811.779C396.421,812.942 399.007,815.619 400.574,816.208C433.091,841.604 468.82,864.602 506.559,881.394L511.929,883.427C562.795,861.556 609.26,829.163 649.8,791.673C653.158,791.543 656.45,792.427 659.75,792.97L670.946,794.691C659.681,805.092 648.851,814.537 635,821.405C631.176,823.301 627.1,825.378 622.946,826.403C619.346,827.291 615.878,830.62 612.919,832.835L599.312,842.669L580.024,855.297C567.366,863.179 553.739,869.079 540.964,876.612C538.477,877.578 513.844,887.32 513.5,887.893C512.843,888.037 511.624,888.488 511,888.439C509.32,888.309 505.698,886.314 503.896,885.642L480.419,876.033C450.498,874.897 422.6,866.766 394.476,857.189L382.977,852.829L382.765,852.616C382.236,841.743 381.953,830.104 384.943,819.548L384.089,819.732L353.65,792.521Z" style="fill:rgb(1,0,0);fill-rule:nonzero;"/>
        </g>
        <g transform="matrix(0.5,0,0,0.5,0,0)">
            <path d="M384.943,819.548L384.743,818.718C384.487,817.789 384.267,817.374 383.688,816.641C387.483,817.387 392.696,822.647 396,825.036L411.696,835.917L451.82,860.556L480.419,876.033C450.498,874.897 422.6,866.766 394.476,857.189L382.977,852.829L382.765,852.616C382.236,841.743 381.953,830.104 384.943,819.548Z" style="fill:rgb(203,53,40);fill-rule:nonzero;"/>
        </g>
        <g transform="matrix(0.5,0,0,0.5,0,0)">
            <path d="M670.946,794.691C675.859,794.518 681.44,795.827 686.329,796.51L728.129,802.803L744.634,805.526L782.85,813.772L762.213,832.49C707.695,877.603 641.342,908.224 571.31,918.865C546.101,922.695 520.545,923.688 495.088,922.848C485.609,922.535 476.09,921.526 466.668,920.479C459.66,919.7 452.188,918.991 445.367,917.191C444.668,914.431 429.907,903.66 426.741,901.069L408.955,885.509C403.677,880.904 396.99,876.399 393.086,870.563L386.565,867.926C384.41,862.769 383.175,858.406 382.977,852.829L394.476,857.189C422.6,866.766 450.498,874.897 480.419,876.033L503.896,885.642C505.698,886.314 509.32,888.309 511,888.439C511.624,888.488 512.843,888.037 513.5,887.893C513.844,887.32 538.477,877.578 540.964,876.612C553.739,869.079 567.366,863.179 580.024,855.297L599.312,842.669L612.919,832.835C615.878,830.62 619.346,827.291 622.946,826.403C627.1,825.378 631.176,823.301 635,821.405C648.851,814.537 659.681,805.092 670.946,794.691Z" style="fill:rgb(37,99,38);fill-rule:nonzero;"/>
        </g>
        <g transform="matrix(0.5,0,0,0.5,0,0)">
            <path d="M503.896,885.642C505.698,886.314 509.32,888.309 511,888.439C511.624,888.488 512.843,888.037 513.5,887.893L514.524,890.013L500.684,889.941L500.713,889.602L502.705,889.302L503.25,889.255C503.259,887.71 503.125,887.007 503.896,885.642Z" style="fill:rgb(254,254,254);fill-rule:nonzero;"/>
        </g>
        <g transform="matrix(0.5,0,0,0.5,0,0)">
            <path d="M382.977,852.829L394.476,857.189C422.6,866.766 450.498,874.897 480.419,876.033L503.896,885.642C503.125,887.007 503.259,887.71 503.25,889.255L502.705,889.302L500.713,889.602L500.684,889.941C466.668,891.024 432.437,882.48 400.114,872.857L393.086,870.563L386.565,867.926C384.41,862.769 383.175,858.406 382.977,852.829Z" style="fill:rgb(244,227,202);fill-rule:nonzero;"/>
        </g>
        <g transform="matrix(0.5,0,0,0.5,0,0)">
            <path d="M382.977,852.829L394.476,857.189C395.992,861.868 400.146,867.991 400.114,872.857L393.086,870.563L386.565,867.926C384.41,862.769 383.175,858.406 382.977,852.829Z" style="fill:rgb(254,254,254);fill-rule:nonzero;"/>
        </g>
        <g transform="matrix(0.5,0,0,0.5,0,0)">
            <path d="M728.129,802.803L744.634,805.526C728.101,820.733 708.584,833.573 689,844.462C635.284,874.331 576.208,891.148 514.524,890.013L513.5,887.893C513.844,887.32 538.477,877.578 540.964,876.612L569.525,873.274C612.994,866.076 654.208,850.914 691.923,828.196C704.396,820.682 717.262,812.529 728.129,802.803Z" style="fill:rgb(244,227,202);fill-rule:nonzero;"/>
        </g>
        <g transform="matrix(0.5,0,0,0.5,0,0)">
            <path d="M670.946,794.691C675.859,794.518 681.44,795.827 686.329,796.51L728.129,802.803C717.262,812.529 704.396,820.682 691.923,828.196C654.208,850.914 612.994,866.076 569.525,873.274L540.964,876.612C553.739,869.079 567.366,863.179 580.024,855.297L599.312,842.669L612.919,832.835C615.878,830.62 619.346,827.291 622.946,826.403C627.1,825.378 631.176,823.301 635,821.405C648.851,814.537 659.681,805.092 670.946,794.691Z" style="fill:rgb(176,21,11);fill-rule:nonzero;"/>
        </g>
        <g transform="matrix(0.5,0,0,0.5,0,0)">
            <path d="M493.026,336.714C531.896,334.428 570.99,338.652 608.723,347.985C610.78,358.463 612.673,368.83 613.356,379.508C615.455,412.318 609.037,445.454 591.886,473.656C576.796,498.468 556.137,518.347 527.344,525.391L525.5,525.658C516.067,527.35 505.476,527.398 496.109,525.33C470.796,519.742 447.579,504.525 433.647,482.492C423.72,466.793 418.676,450.095 414.719,432.133C408.466,403.757 406.121,376.343 412.529,347.72L493.026,336.714Z" style="fill:url(#_Linear1);fill-rule:nonzero;"/>
        </g>
        <g transform="matrix(0.5,0,0,0.5,0,0)">
            <path d="M538.484,366.387L541.05,369.359C537.054,371.125 533.432,373.325 529.713,375.603L538.484,366.387Z" style="fill:rgb(1,0,0);fill-rule:nonzero;"/>
        </g>
        <g transform="matrix(0.5,0,0,0.5,0,0)">
            <path d="M529.091,441.315C531.1,438.889 533.307,436.855 532.871,433.451C532.7,432.117 532.251,430.844 531.85,429.568L530.992,426.794C533.007,429.15 535.468,432.43 535.247,435.725C535.067,438.419 533.733,440.644 531.978,442.605L531.82,442.665L530.592,442.65L531.25,442L530.855,441.35L530.118,441.726L529.091,441.315Z" style="fill:rgb(1,0,0);fill-rule:nonzero;"/>
        </g>
        <g transform="matrix(0.5,0,0,0.5,0,0)">
            <path d="M426.628,446.355C424.141,440.541 422.348,432.471 422.002,426.139C422.373,426.387 422.617,427.473 422.753,427.851C424.85,433.674 427.611,438.684 430.874,443.93C428.618,445.166 428.244,443.186 426.958,445.942L426.628,446.355Z" style="fill:rgb(1,0,0);fill-rule:nonzero;"/>
        </g>
        <g transform="matrix(0.5,0,0,0.5,0,0)">
            <path d="M511.088,505.75L512.047,505.592C516.125,505.359 521.761,510.558 524.617,513.186L515.625,513.21L501.376,513.528L500.515,513.623C503.626,510.987 507.191,507.04 511.088,505.75Z" style="fill:rgb(1,0,0);fill-rule:nonzero;"/>
        </g>
        <g transform="matrix(0.5,0,0,0.5,0,0)">
            <path d="M500.143,488.682C503.135,487.966 507.415,488.308 510.53,488.342L530.439,488.675C526.554,492.273 522.869,494.23 517.79,495.543C507.052,495.623 496.392,491.438 485.883,493.205C490.664,490.503 494.727,489.4 500.143,488.682Z" style="fill:rgb(1,0,0);fill-rule:nonzero;"/>
        </g>
        <g transform="matrix(0.5,0,0,0.5,0,0)">
            <path d="M452.703,355.27C466.838,355.574 476.356,361.5 485.9,371.571L488.977,375.013C471.812,365.483 455.643,358.854 435.777,364.428C432.672,365.299 429.814,366.597 426.908,367.977C432.674,361.679 437.744,358.679 445.855,356.295L452.703,355.27Z" style="fill:url(#_Linear2);fill-rule:nonzero;"/>
        </g>
        <g transform="matrix(0.5,0,0,0.5,0,0)">
            <path d="M554.13,381.083C555.594,381.067 557.432,381.155 558.807,381.668C561.544,382.688 564.098,385.886 565.049,388.564C565.963,391.14 565.721,394.372 564.376,396.75C562.511,400.049 559.651,401.392 556.176,402.481C554.144,402.429 552.118,402.264 550.25,401.382C547.966,400.303 546.146,398.112 545.312,395.748C544.307,392.897 545.078,389.654 546.374,387.033C548.023,383.7 550.758,382.254 554.13,381.083Z" style="fill:url(#_Linear3);fill-rule:nonzero;"/>
        </g>
        <g transform="matrix(0.5,0,0,0.5,0,0)">
            <path d="M553.488,384.75L553.884,384.667C555.455,384.478 556.708,384.443 557.96,385.557C559.213,386.672 559.308,387.67 559.515,389.25C558.761,390.957 558.672,391.162 557.028,392.25C555.083,392.675 554.183,392.458 552.413,391.596C551.537,390.176 551.248,389.408 551.069,387.75C551.817,386.101 552.033,385.827 553.488,384.75Z" style="fill:rgb(254,254,254);fill-rule:nonzero;"/>
        </g>
        <g transform="matrix(0.5,0,0,0.5,0,0)">
            <path d="M538.484,366.387C548.072,358.745 558.338,354.006 570.92,355.377C581.717,356.553 590.935,362.899 598.321,370.501C590.676,366.923 582.398,363.404 573.901,362.569C564.714,361.666 555.603,363.941 547.035,367.057L541.05,369.359L538.484,366.387Z" style="fill:url(#_Linear4);fill-rule:nonzero;"/>
        </g>
        <g transform="matrix(0.5,0,0,0.5,0,0)">
            <path d="M462.259,381.094C463.64,381.224 465.156,381.301 466.456,381.81C469.115,382.851 471.137,385.17 472.145,387.802C473.284,390.781 473.343,394.266 471.8,397.121C470.002,400.446 466.786,401.743 463.379,402.755C461.421,402.544 459.271,402.067 457.548,401.091C455.215,399.769 453.341,397.506 452.631,394.909C451.864,392.104 452.197,388.939 453.795,386.477C455.857,383.3 458.691,381.912 462.259,381.094Z" style="fill:url(#_Linear5);fill-rule:nonzero;"/>
        </g>
        <g transform="matrix(0.5,0,0,0.5,0,0)">
            <path d="M461.651,384.75C463.382,384.428 463.991,384.647 465.599,385.362C466.925,386.997 466.932,387.138 466.992,389.25C466.049,390.877 465.846,391.242 464.167,392.25L463.686,392.349C462.209,392.539 460.626,392.01 459.617,390.884C458.598,389.747 458.678,388.921 458.627,387.5C459.529,385.932 460.029,385.549 461.651,384.75Z" style="fill:rgb(254,254,254);fill-rule:nonzero;"/>
        </g>
        <g transform="matrix(0.5,0,0,0.5,0,0)">
            <path d="M430.874,443.93C433.756,447.317 437.017,450.666 440.734,453.134C454.392,462.201 467.005,458.608 480.503,451.773C485.656,449.164 490.349,446.457 496.075,445.32L494.493,444.108L491.558,441.75C489.532,439.69 489.073,435.451 489.628,432.75C490.696,427.553 494.864,422.961 496.901,418C502.206,405.077 503.271,390.627 504.323,376.844C506.508,386.794 506.812,397.017 505.659,407.134C505.115,411.909 504.386,416.773 502.505,421.237C500.79,425.306 497.058,429.444 496.086,433.619C495.659,435.453 496.349,438.359 497.421,439.887C499.839,443.335 505.526,448.228 509.839,448.641C517.373,449.361 523.38,445.698 529.091,441.315L530.118,441.726L530.855,441.35L531.25,442L530.592,442.65L531.82,442.665C530.492,444.222 529.159,445.59 527.599,446.914C536.813,447.378 544.009,450.213 551.629,455.366C554.954,457.614 558.082,460.495 561.674,462.302C568.956,465.965 575.966,461.036 581.249,456.22C584.114,453.61 586.715,450.466 588.924,447.286C591.23,443.959 593.157,440.59 595.023,437C595.533,436.019 596.774,432.902 597.58,432.35C596.551,438.391 594.724,444.188 592.328,449.822C592.078,451.473 590.927,453.554 590.162,455.082C587.667,460.066 584.555,464.901 580.751,468.987C571.559,478.863 559.684,484.827 546,485.144C535.547,485.386 525.062,483.64 516.298,477.627C513.546,475.738 511.154,473.32 508.757,471.013C506.502,473.41 504.189,476.111 501.552,478.089C497.352,481.237 491.961,483.206 487.006,484.823C476.026,488.407 463.464,488.529 453.085,483.123C439.61,476.103 431.115,460.303 426.628,446.355L426.958,445.942C428.244,443.186 428.618,445.166 430.874,443.93Z" style="fill:url(#_Linear6);fill-rule:nonzero;"/>
        </g>
        <g transform="matrix(0.5,0,0,0.5,0,0)">
            <path d="M510.391,256.638L475.09,258.206L464.669,174.688L463.091,259.431L440.299,262.02C437.024,262.452 432.09,263.882 429.011,263.391L418.726,192.023L418.348,265.648L404.581,268.001L404.939,211.363C403.207,210.433 400.688,210.39 398.75,209.934C393.821,208.775 389.064,206.258 384.925,203.403C374.727,196.37 367.66,185.723 365.55,173.452C363.282,160.261 365.964,147.452 373.774,136.477C380.966,126.371 392.248,118.645 404.587,116.603C420.52,113.965 434.284,119.409 447.047,128.624C456.125,111.981 467.237,99.169 484.982,91.552C501.918,84.282 521.533,84.016 538.672,90.942C554.97,97.53 570.207,110.552 577.144,126.972L577.41,127.616C587.914,119.959 601.048,115.314 614.194,117.28L620.855,118.545C633.719,121.814 645.532,131.193 652.251,142.553C658.548,153.199 660.482,165.449 657.545,177.5C655.92,184.173 652.365,191.045 647.946,196.312L645.134,199.421L645.084,199.531C638.309,206.805 628.672,210.064 619.507,213.027L619.416,268.759C617.447,268.887 614.944,267.831 613,267.365L603.147,265.274L605.779,190.566C604.539,192.108 593.302,255.323 591.801,263.344C590.521,263.872 577.619,261.28 575.403,260.978L557.082,259.128L556.594,193.446L556.25,196.815L556,196L555.75,195.245L553.736,196.46L553.245,195.15L545.042,257.856C541.478,258.301 537.208,257.473 533.561,257.28L510.391,256.638Z" style="fill:rgb(254,254,254);fill-rule:nonzero;"/>
        </g>
        <g transform="matrix(0.5,0,0,0.5,0,0)">
            <path d="M510.391,256.638L510.375,106.479L497.825,106.698C483.098,108.359 469.754,115.232 460.475,126.75L459.782,126.75C468.217,113.58 481.422,106.202 496.02,101.954C512.319,97.212 528.607,99.573 543.27,107.928C558.343,116.519 567.428,129.273 571.897,145.81C576.076,141.626 580.332,138.015 585.734,135.474C596.619,130.353 607.436,128.947 618.882,133.099C630.097,137.167 639.076,145.286 643.999,156.213C649.203,167.76 649.725,185.501 645.036,197.282C644.563,198.471 644.728,198.295 645.134,199.421L645.084,199.531C638.309,206.805 628.672,210.064 619.507,213.027L619.416,268.759C617.447,268.887 614.944,267.831 613,267.365L603.147,265.274L605.779,190.566C604.539,192.108 593.302,255.323 591.801,263.344C590.521,263.872 577.619,261.28 575.403,260.978L557.082,259.128L556.594,193.446L556.25,196.815L556,196L555.75,195.245L553.736,196.46L553.245,195.15L545.042,257.856C541.478,258.301 537.208,257.473 533.561,257.28L510.391,256.638Z" style="fill:rgb(238,205,160);fill-rule:nonzero;"/>
        </g>
        <g transform="matrix(0.5,0,0,0.5,0,0)">
            <path d="M553.245,195.15L555.25,179.903C555.448,178.043 555.246,175.633 556,173.946L556.441,174.25L556.594,193.446L556.25,196.815L556,196L555.75,195.245L553.736,196.46L553.245,195.15Z" style="fill:rgb(1,0,0);fill-rule:nonzero;"/>
        </g>
        <g transform="matrix(0.5,0,0,0.5,0,0)">
            <path d="M189.436,674.404C186.633,671.502 184.82,664.405 183.349,660.542C151.566,577.066 156.638,482.381 193.112,401.329C208.72,366.645 231.89,332.663 258.633,305.593C280.055,283.909 304.366,265.517 330.481,249.872C344.673,241.371 359.679,232.997 375.193,227.144C376.916,227.962 385.279,231.243 385.607,232.75L385.557,236.079L355.624,251.206L355.898,354.99L339.637,365.056L371.056,365.461C367.433,369.848 364.864,373.968 362.449,379.121L355.854,378.987L355.46,537.481C344.162,540.081 332.817,543.862 321.76,547.387C310.723,550.906 299.836,554.576 289.187,559.15C283.686,561.513 277.496,564.131 272.702,567.757C265.921,577.157 260.392,588.27 254.979,598.5L234.287,639.643L226.507,657.787C225.382,660.537 224.353,664.292 222.737,666.736C221.777,668.188 218.698,668.501 217.064,668.867L202.49,671.478L189.436,674.404Z" style="fill:rgb(254,254,254);fill-rule:nonzero;"/>
        </g>
        <g transform="matrix(0.5,0,0,0.5,0,0)">
            <path d="M202.49,671.478C198.891,664.397 196.188,655.978 193.666,648.438C182.587,615.316 176.655,581.093 176.543,546.159C176.496,531.466 176.895,516.558 178.742,501.969C187.889,429.699 221.629,362.779 272.785,311.269L272.549,335.57C235.879,374.645 209.77,427.111 199.233,479.623C193.714,507.127 192.101,534.837 193.026,562.833C193.794,586.054 198.482,608.276 204.508,630.596C208.002,643.538 211.766,656.529 217.064,668.867L202.49,671.478Z" style="fill:rgb(38,99,42);fill-rule:nonzero;"/>
        </g>
        <g transform="matrix(0.5,0,0,0.5,0,0)">
            <path d="M272.549,335.57L272.702,567.757C265.921,577.157 260.392,588.27 254.979,598.5L234.287,639.643L226.507,657.787C225.382,660.537 224.353,664.292 222.737,666.736C221.777,668.188 218.698,668.501 217.064,668.867C211.766,656.529 208.002,643.538 204.508,630.596C198.482,608.276 193.794,586.054 193.026,562.833C192.101,534.837 193.714,507.127 199.233,479.623C209.77,427.111 235.879,374.645 272.549,335.57Z" style="fill:rgb(95,162,69);fill-rule:nonzero;"/>
        </g>
        <g transform="matrix(0.5,0,0,0.5,0,0)">
            <path d="M649.993,226.423L664.475,233.398L694.55,249.75C740.819,277.308 780.695,316.99 808.892,362.877C814.791,372.476 820.442,382.373 825.352,392.516L829.483,401.399C829.727,401.921 830.361,403.661 830.738,403.966L832.095,403.811L888.653,482.447C891.082,491.747 891.411,502.427 892.291,512.015C896.623,559.202 891.76,606.721 878.693,652.25L868.558,682.81L835.257,674.36L822.988,671.689C819.637,671.005 793.046,665.708 792.663,665.337C792.067,664.76 790.765,656.664 790.396,655.221C788.353,647.224 785.566,639.456 782.634,631.75C778.875,621.87 774.077,612.255 769.116,602.926C761.131,587.91 752.253,573.33 739.541,561.86L739.626,452.985L739.849,451.127L678.951,403.321C674.194,399.84 669.576,395.529 664.169,393.119C662.71,385.01 661.244,377.283 657.191,369.978C655.295,366.56 652.838,363.533 650.393,360.5L676.864,357.733C670.525,353.283 663.645,349.253 656.503,346.241L656.476,245.085C654.917,243.89 652.559,243.266 650.706,242.614L639.073,238.673L639.263,231.054L649.993,226.423Z" style="fill:rgb(254,254,254);fill-rule:nonzero;"/>
        </g>
        <g transform="matrix(0.5,0,0,0.5,0,0)">
            <path d="M739.98,317.608L739.906,299.359C784.145,338.803 815.115,390.37 832.85,446.65C840.059,469.526 845.322,493.162 846.72,517.179C848.185,542.351 848.362,567.464 844.812,592.5C843.206,603.826 840.585,614.845 838.127,626L815.738,609.418C818.723,594.762 821.42,579.852 822.594,564.925C826.839,510.948 815.799,456.145 795.022,406.453C783.849,379.729 768.48,353.294 751.342,329.96C748.509,326.103 744.428,319.43 739.98,317.608Z" style="fill:rgb(203,53,40);fill-rule:nonzero;"/>
        </g>
        <g transform="matrix(0.5,0,0,0.5,0,0)">
            <path d="M830.738,403.966L832.095,403.811L888.653,482.447C891.082,491.747 891.411,502.427 892.291,512.015C896.623,559.202 891.76,606.721 878.693,652.25L868.558,682.81L835.257,674.36L836.657,671.052C842.457,656.242 847.682,641.157 851.44,625.692C869.483,551.452 861.273,473.765 830.738,403.966Z" style="fill:rgb(37,99,38);fill-rule:nonzero;"/>
        </g>
        <g transform="matrix(0.5,0,0,0.5,0,0)">
            <path d="M739.98,317.608C744.428,319.43 748.509,326.103 751.342,329.96C768.48,353.294 783.849,379.729 795.022,406.453C815.799,456.145 826.839,510.948 822.594,564.925C821.42,579.852 818.723,594.762 815.738,609.418L838.127,626L822.988,671.689C819.637,671.005 793.046,665.708 792.663,665.337C792.067,664.76 790.765,656.664 790.396,655.221C788.353,647.224 785.566,639.456 782.634,631.75C778.875,621.87 774.077,612.255 769.116,602.926C761.131,587.91 752.253,573.33 739.541,561.86L739.626,452.985L739.849,451.127L739.98,317.608Z" style="fill:rgb(203,53,40);fill-rule:nonzero;"/>
        </g>
        <g transform="matrix(0.5,0,0,0.5,0,0)">
            <path d="M739.626,452.985L740.043,451.54C742.385,451.972 751.542,460.361 754.077,462.335L791.016,490.445L746.548,557.142L815.738,609.418L838.127,626L822.988,671.689C819.637,671.005 793.046,665.708 792.663,665.337C792.067,664.76 790.765,656.664 790.396,655.221C788.353,647.224 785.566,639.456 782.634,631.75C778.875,621.87 774.077,612.255 769.116,602.926C761.131,587.91 752.253,573.33 739.541,561.86L739.626,452.985Z" style="fill:rgb(176,21,11);fill-rule:nonzero;"/>
        </g>
        <g transform="matrix(0.5,0,0,0.5,0,0)">
            <path d="M690.945,773.068L656.661,768.77L586.685,761.947L545.811,760.322C496.04,758.933 446.799,760.783 397.253,765.641L336.483,772.624L232.094,791.756L203.844,798.965L192.563,802.264C190.424,802.932 188.132,803.939 185.903,804.144L141.984,707.263L170.211,700.699C232.004,686.062 294.653,676.075 357.815,669.673L412.619,664.75L513.715,661.933L619.214,665.099C697.813,670.671 775.989,682.737 853.04,699.058C848.964,702.536 844.38,705.432 840,708.514C818.432,723.688 794.548,735.421 770.366,745.828L753.736,752.767C750.054,754.216 745.158,755.445 741.981,757.716L742.19,758.757C739.99,759.963 735.627,758.747 733.132,758.376C732.175,759.543 731.268,760.641 729.901,761.338C723.131,764.789 714.77,766.737 707.5,769.001C703.18,770.346 698.181,772.395 693.72,772.888L692.965,772.934L690.945,773.068Z" style="fill:rgb(215,64,53);fill-rule:nonzero;"/>
        </g>
        <g transform="matrix(1,0,0,1,-9.45449,27.7645)">
            <path d="M158.018,301.59C157.859,300.487 157.156,299.268 156.687,298.257L153.651,291.702L147.068,276.675L146.653,276.784C143.304,277.647 140.345,277.237 137.355,275.463C133.984,273.463 131.809,270.394 129.764,267.127C124.17,258.187 120.584,247.173 118.066,236.982C110.772,207.453 111.16,174.476 122.988,146.167C124.807,141.815 126.667,137.546 129.099,133.491L131.325,130.022C138.54,169.131 146.631,208.097 159.253,245.88C161.366,252.205 163.169,258.842 165.691,265.008C167.152,268.579 168.979,272.005 170.702,275.455L181.567,297.235" style="fill:rgb(38,15,0);"/>
        </g>
        <g transform="matrix(1,0,0,1,-9.45449,27.7645)">
            <path d="M341.526,299.166L354.054,269.681L359.391,258.234C360.505,255.881 362.069,253.229 362.681,250.719C363.021,249.326 362.85,247.814 362.298,246.503C361.472,244.542 359.277,242.814 357.802,241.293C353.787,237.152 349.348,231.722 349.753,225.584C349.965,222.39 351.317,218.834 352.427,215.846C354.535,210.173 357.374,204.569 360.129,199.182C366.368,186.986 373.368,175.332 381.062,164C383.409,160.543 385.919,156.067 389.26,153.553L362.925,219.04L367.491,221.015L391.171,170.836L395.35,162.694C396.125,161.262 396.844,159.682 398.012,158.525C397.501,161.645 396.179,164.77 395.147,167.76L388.839,185.31L374.929,224.03L380.367,226.117L389.668,203.313L403.361,170.204C404.503,167.603 405.384,164.443 407.179,162.232C407.043,164.381 406.39,166.404 405.821,168.467L403.875,175.742L391.491,217.842C390.426,221.605 388.861,225.498 388.067,229.301L392.918,230.998L400.341,209.503L409.517,184.899L414.95,170.771C415.748,168.734 416.377,166.413 417.497,164.537C416.902,176.755 414.39,188.808 411.926,200.74C409.743,211.317 407.635,222.005 403.743,232.112C401.959,236.747 400.036,241.398 396.251,244.788C391.969,248.624 386.959,249.919 381.332,249.964C379.63,249.978 377.645,249.777 376,250.204C374.268,250.655 372.868,251.521 371.933,253.083C370.684,255.17 370.094,257.808 369.366,260.125L365.571,272.673C362.58,282.663 359.166,292.699 356.779,302.85" style="fill:rgb(38,15,0);"/>
        </g>
        <g transform="matrix(1,0,0,1,-9.45449,27.7645)">
            <path d="M356.779,302.85L158.018,301.59" style="fill:none;"/>
        </g>
        <g transform="matrix(0.5,0,0,0.5,-9.45449,27.7645)">
            <path d="M324.461,538.25L325.144,538.361C326.885,539.874 328.3,544.977 329.387,547.276L307.25,556.344L305.725,556.297C304.685,554.364 302.696,550.853 302.846,548.611L324.461,538.25Z" style="fill:rgb(251,250,247);fill-rule:nonzero;"/>
        </g>
        <g transform="matrix(0.5,0,0,0.5,-9.45449,27.7645)">
            <path d="M331.625,556.75L332.738,556.533C337.102,561.873 340.111,569.736 343.361,575.884L354.091,594.585C354.091,594.585 337.211,596.811 332.592,597.501C330.504,597.813 326.377,598.722 326.377,598.722L311.225,565.922L331.625,556.75Z" style="fill:rgb(233,45,42);fill-rule:nonzero;"/>
        </g>
        <g transform="matrix(0.5,0,0,0.5,-9.45449,27.7645)">
            <path d="M257.177,286.956L321.813,530.334C320.589,531.541 318.262,532.072 316.632,532.712C311.81,534.606 307.063,536.5 302.109,538.036C297.312,539.471 293.059,539.593 288.072,539.451C279.58,534.836 274.907,524.957 270.801,516.628L261.853,496.528C242.141,446.592 234.362,388.829 243.328,335.694C246.23,318.494 250.259,303.02 257.177,286.956Z" style="fill:rgb(251,250,247);fill-rule:nonzero;"/>
        </g>
        <g transform="matrix(0.909559,0,2.18984e-15,0.909559,22.5581,37.7864)">
            <g transform="matrix(1.9228,0,0,1.9228,-180.098,-308.572)">
                <g transform="matrix(18,0,0,18,134.587,360.071)">
                    <path d="M0.398,-0.104C0.398,-0.104 0.239,-0.06 0.239,-0.06C0.23,-0.058 0.218,-0.056 0.21,-0.061C0.201,-0.066 0.196,-0.076 0.194,-0.085C0.194,-0.085 0.062,-0.558 0.062,-0.558C0.062,-0.558 -0.087,-0.516 -0.087,-0.516C-0.096,-0.513 -0.108,-0.511 -0.117,-0.516C-0.126,-0.521 -0.131,-0.531 -0.133,-0.54L-0.167,-0.656C-0.17,-0.665 -0.171,-0.676 -0.166,-0.685C-0.161,-0.694 -0.15,-0.699 -0.14,-0.701C0.039,-0.753 0.219,-0.802 0.4,-0.849C0.409,-0.851 0.421,-0.853 0.43,-0.847C0.439,-0.843 0.444,-0.832 0.446,-0.823L0.476,-0.706C0.478,-0.697 0.479,-0.685 0.474,-0.677C0.468,-0.668 0.457,-0.664 0.448,-0.662C0.448,-0.662 0.299,-0.623 0.299,-0.623C0.299,-0.623 0.425,-0.148 0.425,-0.148C0.427,-0.139 0.428,-0.128 0.423,-0.119C0.418,-0.111 0.407,-0.106 0.398,-0.104Z" style="fill:white;fill-rule:nonzero;"/>
                </g>
                <g transform="matrix(18,0,0,18,146.395,360.071)">
                    <path d="M0.154,-0.764C0.154,-0.764 0.184,-0.639 0.184,-0.639L0.26,-0.657C0.272,-0.66 0.287,-0.665 0.292,-0.678C0.297,-0.689 0.297,-0.701 0.294,-0.713L0.286,-0.746C0.284,-0.758 0.279,-0.769 0.27,-0.777C0.259,-0.786 0.243,-0.785 0.231,-0.782L0.154,-0.764ZM0.242,-0.23C0.242,-0.23 0.09,-0.193 0.09,-0.193C0.08,-0.191 0.069,-0.189 0.06,-0.194C0.052,-0.2 0.048,-0.21 0.045,-0.219C-0.007,-0.429 -0.059,-0.638 -0.111,-0.848C-0.113,-0.857 -0.114,-0.868 -0.109,-0.877C-0.103,-0.886 -0.092,-0.89 -0.082,-0.892C-0.082,-0.892 0.261,-0.973 0.261,-0.973C0.314,-0.985 0.382,-0.995 0.43,-0.963C0.468,-0.938 0.49,-0.898 0.499,-0.855L0.509,-0.81C0.514,-0.786 0.516,-0.761 0.511,-0.737C0.507,-0.716 0.494,-0.698 0.476,-0.686C0.511,-0.69 0.545,-0.682 0.574,-0.662C0.604,-0.64 0.621,-0.606 0.629,-0.57C0.629,-0.57 0.672,-0.363 0.672,-0.363C0.674,-0.354 0.675,-0.342 0.67,-0.334C0.664,-0.326 0.653,-0.322 0.644,-0.32C0.644,-0.32 0.49,-0.287 0.49,-0.287C0.481,-0.285 0.469,-0.283 0.461,-0.289C0.452,-0.294 0.448,-0.305 0.446,-0.314C0.446,-0.314 0.413,-0.463 0.413,-0.463C0.411,-0.474 0.406,-0.486 0.397,-0.493C0.388,-0.5 0.376,-0.499 0.365,-0.496C0.365,-0.496 0.225,-0.464 0.225,-0.464C0.225,-0.464 0.27,-0.273 0.27,-0.273C0.272,-0.264 0.273,-0.253 0.267,-0.244C0.262,-0.236 0.251,-0.232 0.242,-0.23Z" style="fill:white;fill-rule:nonzero;"/>
                </g>
                <g transform="matrix(18,0,0,18,159.769,360.071)">
                    <path d="M0.214,-0.903C0.214,-0.903 0.194,-0.744 0.194,-0.744C0.194,-0.744 0.354,-0.774 0.354,-0.774C0.354,-0.774 0.278,-0.915 0.278,-0.915C0.276,-0.919 0.272,-0.924 0.267,-0.926C0.264,-0.928 0.26,-0.929 0.256,-0.928L0.23,-0.923C0.226,-0.923 0.223,-0.921 0.22,-0.917C0.217,-0.913 0.215,-0.908 0.214,-0.903ZM0.245,-0.426C0.246,-0.417 0.247,-0.406 0.241,-0.398C0.236,-0.389 0.225,-0.386 0.216,-0.384C0.216,-0.384 0.069,-0.355 0.069,-0.355C0.06,-0.353 0.048,-0.352 0.04,-0.358C0.032,-0.363 0.028,-0.374 0.026,-0.383C0.026,-0.383 -0.027,-0.642 -0.027,-0.642C-0.032,-0.664 -0.032,-0.688 -0.031,-0.711C-0.03,-0.742 -0.025,-0.776 -0.019,-0.806C-0.019,-0.806 0.026,-1.047 0.026,-1.047C0.027,-1.058 0.032,-1.068 0.04,-1.075C0.049,-1.083 0.061,-1.087 0.072,-1.09C0.072,-1.09 0.351,-1.142 0.351,-1.142C0.363,-1.144 0.375,-1.144 0.386,-1.14C0.396,-1.136 0.404,-1.128 0.409,-1.118C0.409,-1.118 0.538,-0.91 0.538,-0.91C0.554,-0.884 0.57,-0.854 0.583,-0.826C0.592,-0.805 0.6,-0.782 0.604,-0.759C0.604,-0.759 0.648,-0.499 0.648,-0.499C0.65,-0.49 0.65,-0.478 0.644,-0.47C0.638,-0.462 0.627,-0.459 0.618,-0.457C0.618,-0.457 0.467,-0.431 0.467,-0.431C0.457,-0.429 0.445,-0.429 0.436,-0.434C0.427,-0.439 0.423,-0.45 0.422,-0.459C0.422,-0.459 0.397,-0.597 0.397,-0.597C0.397,-0.597 0.218,-0.564 0.218,-0.564C0.218,-0.564 0.245,-0.426 0.245,-0.426Z" style="fill:white;fill-rule:nonzero;"/>
                </g>
                <g transform="matrix(18,0,0,18,172.189,360.071)">
                    <path d="M0.388,-0.53C0.388,-0.53 0.225,-0.505 0.225,-0.505C0.216,-0.504 0.205,-0.504 0.196,-0.51C0.188,-0.515 0.185,-0.526 0.184,-0.535C0.184,-0.535 0.108,-1.021 0.108,-1.021C0.108,-1.021 -0.043,-0.996 -0.043,-0.996C-0.053,-0.995 -0.064,-0.994 -0.073,-1C-0.081,-1.006 -0.085,-1.017 -0.086,-1.026L-0.106,-1.145C-0.108,-1.155 -0.108,-1.166 -0.102,-1.174C-0.095,-1.182 -0.084,-1.185 -0.074,-1.187C0.109,-1.217 0.292,-1.244 0.476,-1.269C0.486,-1.27 0.498,-1.27 0.506,-1.264C0.514,-1.258 0.517,-1.247 0.518,-1.238L0.534,-1.118C0.535,-1.109 0.535,-1.098 0.529,-1.09C0.523,-1.082 0.511,-1.079 0.502,-1.077C0.502,-1.077 0.35,-1.057 0.35,-1.057C0.35,-1.057 0.419,-0.57 0.419,-0.57C0.42,-0.561 0.42,-0.55 0.414,-0.542C0.408,-0.534 0.397,-0.531 0.388,-0.53Z" style="fill:white;fill-rule:nonzero;"/>
                </g>
                <g transform="matrix(18,0,0,18,183.997,360.071)">
                    <path d="M0.391,-0.612C0.391,-0.612 0.228,-0.594 0.228,-0.594C0.219,-0.593 0.207,-0.593 0.199,-0.599C0.191,-0.605 0.189,-0.616 0.188,-0.626C0.188,-0.626 0.13,-1.113 0.13,-1.113C0.13,-1.113 -0.022,-1.095 -0.022,-1.095C-0.031,-1.093 -0.043,-1.093 -0.051,-1.099C-0.06,-1.105 -0.063,-1.116 -0.064,-1.126L-0.079,-1.246C-0.08,-1.255 -0.08,-1.266 -0.074,-1.274C-0.067,-1.282 -0.056,-1.285 -0.046,-1.286C0.138,-1.309 0.322,-1.33 0.506,-1.348C0.516,-1.348 0.528,-1.348 0.536,-1.342C0.544,-1.336 0.547,-1.325 0.548,-1.315L0.559,-1.195C0.56,-1.185 0.559,-1.174 0.553,-1.167C0.546,-1.159 0.534,-1.156 0.525,-1.155C0.525,-1.155 0.373,-1.14 0.373,-1.14C0.373,-1.14 0.424,-0.652 0.424,-0.652C0.425,-0.642 0.424,-0.631 0.418,-0.624C0.411,-0.616 0.4,-0.613 0.391,-0.612Z" style="fill:white;fill-rule:nonzero;"/>
                </g>
                <g transform="matrix(18,0,0,18,195.715,360.071)">
                    <path d="M0.659,-0.875C0.66,-0.847 0.658,-0.819 0.649,-0.791C0.641,-0.765 0.625,-0.742 0.604,-0.725C0.578,-0.702 0.544,-0.688 0.511,-0.677C0.461,-0.662 0.409,-0.656 0.357,-0.652C0.305,-0.648 0.252,-0.647 0.201,-0.655C0.166,-0.661 0.131,-0.67 0.101,-0.689C0.078,-0.703 0.058,-0.723 0.047,-0.748C0.034,-0.774 0.028,-0.802 0.025,-0.83C0.025,-0.83 -0.005,-1.17 -0.005,-1.17C-0.008,-1.198 -0.006,-1.227 0.002,-1.254C0.009,-1.281 0.025,-1.304 0.046,-1.323C0.073,-1.347 0.108,-1.362 0.143,-1.373C0.194,-1.389 0.249,-1.396 0.303,-1.4C0.357,-1.404 0.412,-1.405 0.465,-1.396C0.501,-1.39 0.537,-1.38 0.568,-1.36C0.591,-1.345 0.61,-1.324 0.621,-1.299C0.633,-1.273 0.639,-1.244 0.64,-1.216C0.64,-1.216 0.659,-0.875 0.659,-0.875ZM0.254,-0.885C0.255,-0.872 0.261,-0.861 0.272,-0.853C0.29,-0.839 0.323,-0.843 0.343,-0.845C0.364,-0.846 0.397,-0.847 0.413,-0.863C0.422,-0.872 0.426,-0.884 0.426,-0.897C0.426,-0.897 0.408,-1.166 0.408,-1.166C0.407,-1.179 0.4,-1.19 0.39,-1.197C0.371,-1.211 0.338,-1.207 0.317,-1.206C0.296,-1.204 0.263,-1.203 0.247,-1.187C0.238,-1.178 0.232,-1.166 0.233,-1.153C0.233,-1.153 0.254,-0.885 0.254,-0.885Z" style="fill:white;fill-rule:nonzero;"/>
                </g>
                <g transform="matrix(18,0,0,18,208.981,360.071)">
                    <path d="M0.27,-1.242C0.27,-1.242 0.274,-1.114 0.274,-1.114L0.352,-1.117C0.364,-1.117 0.38,-1.12 0.388,-1.131C0.394,-1.141 0.396,-1.153 0.396,-1.165L0.395,-1.199C0.395,-1.211 0.392,-1.223 0.385,-1.232C0.376,-1.244 0.361,-1.245 0.348,-1.245L0.27,-1.242ZM0.252,-0.701C0.252,-0.701 0.096,-0.695 0.096,-0.695C0.087,-0.695 0.076,-0.695 0.068,-0.702C0.061,-0.709 0.059,-0.72 0.058,-0.729C0.048,-0.945 0.038,-1.161 0.028,-1.376C0.027,-1.386 0.029,-1.397 0.035,-1.404C0.043,-1.412 0.054,-1.414 0.064,-1.414C0.064,-1.414 0.414,-1.427 0.414,-1.427C0.468,-1.428 0.536,-1.425 0.577,-1.384C0.609,-1.352 0.623,-1.309 0.624,-1.264L0.624,-1.218C0.625,-1.194 0.622,-1.169 0.612,-1.146C0.604,-1.126 0.588,-1.112 0.568,-1.103C0.603,-1.1 0.635,-1.086 0.659,-1.061C0.685,-1.033 0.694,-0.996 0.695,-0.96C0.695,-0.96 0.697,-0.748 0.697,-0.748C0.697,-0.739 0.696,-0.727 0.689,-0.72C0.682,-0.713 0.671,-0.712 0.661,-0.712C0.661,-0.712 0.505,-0.709 0.505,-0.709C0.495,-0.708 0.484,-0.71 0.477,-0.717C0.469,-0.723 0.468,-0.734 0.467,-0.744C0.467,-0.744 0.464,-0.897 0.464,-0.897C0.463,-0.908 0.462,-0.92 0.454,-0.929C0.447,-0.938 0.434,-0.939 0.424,-0.939C0.424,-0.939 0.28,-0.934 0.28,-0.934C0.28,-0.934 0.287,-0.739 0.287,-0.739C0.287,-0.729 0.286,-0.718 0.28,-0.711C0.273,-0.703 0.261,-0.702 0.252,-0.701Z" style="fill:white;fill-rule:nonzero;"/>
                </g>
                <g transform="matrix(18,0,0,18,222.355,360.071)">
                    <path d="M0.088,-0.713C0.079,-0.713 0.067,-0.714 0.06,-0.721C0.053,-0.728 0.052,-0.739 0.052,-0.749L0.051,-0.868C0.051,-0.877 0.052,-0.888 0.059,-0.895C0.067,-0.902 0.078,-0.904 0.087,-0.904L0.189,-0.904C0.189,-0.904 0.189,-1.24 0.189,-1.24L0.086,-1.24C0.076,-1.24 0.065,-1.241 0.057,-1.248C0.05,-1.255 0.048,-1.266 0.048,-1.276L0.048,-1.397C0.048,-1.406 0.049,-1.417 0.056,-1.424C0.064,-1.432 0.076,-1.433 0.085,-1.433C0.085,-1.433 0.533,-1.43 0.533,-1.43C0.543,-1.429 0.555,-1.428 0.562,-1.42C0.569,-1.413 0.57,-1.402 0.57,-1.393L0.568,-1.272C0.567,-1.262 0.565,-1.251 0.558,-1.244C0.551,-1.238 0.539,-1.236 0.529,-1.237L0.428,-1.238C0.428,-1.238 0.424,-0.902 0.424,-0.902L0.523,-0.901C0.532,-0.9 0.543,-0.899 0.551,-0.892C0.558,-0.884 0.559,-0.873 0.559,-0.864L0.556,-0.745C0.556,-0.736 0.554,-0.724 0.547,-0.718C0.54,-0.711 0.528,-0.709 0.519,-0.71C0.519,-0.71 0.088,-0.713 0.088,-0.713Z" style="fill:white;fill-rule:nonzero;"/>
                </g>
                <g transform="matrix(18,0,0,18,233.245,360.071)">
                    <path d="M0.36,-1.206C0.36,-1.206 0.305,-1.056 0.305,-1.056C0.305,-1.056 0.467,-1.049 0.467,-1.049C0.467,-1.049 0.426,-1.203 0.426,-1.203C0.424,-1.207 0.421,-1.213 0.418,-1.216C0.415,-1.219 0.411,-1.22 0.407,-1.221L0.381,-1.222C0.377,-1.222 0.373,-1.221 0.37,-1.218C0.366,-1.215 0.363,-1.21 0.36,-1.206ZM0.282,-0.735C0.282,-0.725 0.28,-0.714 0.272,-0.707C0.265,-0.701 0.254,-0.7 0.244,-0.7C0.244,-0.7 0.096,-0.705 0.096,-0.705C0.086,-0.705 0.075,-0.707 0.068,-0.714C0.061,-0.722 0.06,-0.733 0.06,-0.742C0.06,-0.742 0.068,-1.006 0.068,-1.006C0.068,-1.029 0.073,-1.053 0.079,-1.075C0.088,-1.105 0.1,-1.136 0.113,-1.165C0.113,-1.165 0.211,-1.389 0.211,-1.389C0.215,-1.399 0.221,-1.408 0.231,-1.413C0.241,-1.419 0.254,-1.42 0.266,-1.42C0.266,-1.42 0.548,-1.407 0.548,-1.407C0.56,-1.406 0.571,-1.404 0.581,-1.397C0.59,-1.391 0.596,-1.382 0.599,-1.371C0.599,-1.371 0.676,-1.139 0.676,-1.139C0.686,-1.11 0.695,-1.077 0.701,-1.047C0.705,-1.024 0.708,-1 0.707,-0.977C0.707,-0.977 0.69,-0.714 0.69,-0.714C0.689,-0.704 0.687,-0.693 0.68,-0.687C0.672,-0.68 0.661,-0.679 0.651,-0.68C0.651,-0.68 0.499,-0.689 0.499,-0.689C0.489,-0.689 0.477,-0.691 0.47,-0.699C0.462,-0.706 0.461,-0.717 0.461,-0.727C0.461,-0.727 0.468,-0.866 0.468,-0.866C0.468,-0.866 0.288,-0.874 0.288,-0.874C0.288,-0.874 0.282,-0.735 0.282,-0.735Z" style="fill:white;fill-rule:nonzero;"/>
                </g>
                <g transform="matrix(18,0,0,18,250.345,360.071)">
                    <path d="M0.638,-0.598C0.638,-0.598 0.321,-0.631 0.321,-0.631C0.257,-0.638 0.186,-0.652 0.138,-0.698C0.095,-0.739 0.085,-0.8 0.089,-0.857C0.089,-0.857 0.115,-1.168 0.115,-1.168C0.119,-1.225 0.14,-1.283 0.191,-1.316C0.248,-1.354 0.323,-1.354 0.389,-1.348C0.389,-1.348 0.651,-1.321 0.651,-1.321C0.661,-1.32 0.672,-1.317 0.679,-1.31C0.685,-1.302 0.686,-1.291 0.685,-1.281L0.671,-1.161C0.67,-1.152 0.667,-1.141 0.659,-1.135C0.651,-1.128 0.639,-1.128 0.63,-1.129C0.63,-1.129 0.414,-1.152 0.414,-1.152C0.398,-1.153 0.38,-1.153 0.366,-1.144C0.353,-1.136 0.348,-1.122 0.346,-1.108C0.346,-1.108 0.324,-0.87 0.324,-0.87C0.323,-0.857 0.324,-0.843 0.332,-0.832C0.34,-0.822 0.354,-0.818 0.366,-0.817L0.465,-0.807C0.465,-0.807 0.481,-0.962 0.481,-0.962C0.482,-0.972 0.484,-0.982 0.492,-0.989C0.5,-0.995 0.512,-0.995 0.521,-0.994C0.521,-0.994 0.681,-0.977 0.681,-0.977C0.69,-0.976 0.702,-0.973 0.708,-0.965C0.714,-0.957 0.715,-0.946 0.714,-0.937C0.714,-0.937 0.678,-0.63 0.678,-0.63C0.677,-0.621 0.674,-0.61 0.666,-0.603C0.659,-0.597 0.647,-0.597 0.638,-0.598Z" style="fill:white;fill-rule:nonzero;"/>
                </g>
                <g transform="matrix(18,0,0,18,263.089,360.071)">
                    <path d="M0.73,-0.68C0.726,-0.652 0.717,-0.625 0.704,-0.6C0.69,-0.576 0.67,-0.557 0.646,-0.544C0.615,-0.528 0.579,-0.521 0.544,-0.518C0.492,-0.513 0.439,-0.518 0.388,-0.525C0.336,-0.532 0.284,-0.542 0.235,-0.561C0.203,-0.573 0.17,-0.59 0.145,-0.614C0.125,-0.633 0.11,-0.657 0.104,-0.684C0.098,-0.712 0.097,-0.74 0.101,-0.768C0.101,-0.768 0.142,-1.107 0.142,-1.107C0.145,-1.135 0.153,-1.163 0.166,-1.188C0.179,-1.213 0.2,-1.232 0.224,-1.246C0.256,-1.264 0.293,-1.271 0.329,-1.275C0.383,-1.28 0.438,-1.275 0.492,-1.268C0.545,-1.26 0.599,-1.25 0.65,-1.23C0.683,-1.217 0.717,-1.199 0.743,-1.173C0.762,-1.154 0.777,-1.129 0.782,-1.102C0.788,-1.074 0.788,-1.045 0.783,-1.017C0.783,-1.017 0.73,-0.68 0.73,-0.68ZM0.336,-0.774C0.334,-0.761 0.338,-0.749 0.347,-0.739C0.361,-0.722 0.394,-0.719 0.415,-0.716C0.435,-0.713 0.467,-0.707 0.487,-0.72C0.497,-0.727 0.505,-0.738 0.507,-0.751C0.507,-0.751 0.545,-1.017 0.545,-1.017C0.547,-1.03 0.543,-1.042 0.534,-1.051C0.519,-1.069 0.486,-1.072 0.465,-1.075C0.444,-1.078 0.411,-1.084 0.392,-1.071C0.381,-1.064 0.374,-1.054 0.372,-1.041C0.372,-1.041 0.336,-0.774 0.336,-0.774Z" style="fill:white;fill-rule:nonzero;"/>
                </g>
                <g transform="matrix(18,0,0,18,276.355,360.071)">
                    <path d="M0.464,-0.408C0.464,-0.408 0.127,-0.467 0.127,-0.467C0.118,-0.469 0.107,-0.472 0.101,-0.48C0.095,-0.488 0.095,-0.499 0.097,-0.509C0.132,-0.722 0.167,-0.935 0.202,-1.148C0.204,-1.157 0.207,-1.168 0.216,-1.174C0.224,-1.179 0.236,-1.179 0.246,-1.177C0.246,-1.177 0.596,-1.115 0.596,-1.115C0.661,-1.103 0.734,-1.081 0.779,-1.029C0.818,-0.984 0.822,-0.923 0.811,-0.866C0.811,-0.866 0.749,-0.56 0.749,-0.56C0.738,-0.504 0.711,-0.449 0.658,-0.421C0.6,-0.39 0.527,-0.396 0.464,-0.408ZM0.411,-0.955C0.411,-0.955 0.351,-0.62 0.351,-0.62L0.471,-0.598C0.484,-0.596 0.498,-0.596 0.509,-0.604C0.52,-0.611 0.525,-0.625 0.528,-0.638C0.528,-0.638 0.573,-0.877 0.573,-0.877C0.575,-0.889 0.575,-0.904 0.567,-0.915C0.56,-0.926 0.546,-0.93 0.533,-0.933L0.411,-0.955Z" style="fill:white;fill-rule:nonzero;"/>
                </g>
                <g transform="matrix(18,0,0,18,289.783,360.071)">
                    <path d="M0.742,-0.38C0.736,-0.352 0.725,-0.325 0.709,-0.302C0.694,-0.279 0.672,-0.262 0.646,-0.251C0.614,-0.237 0.578,-0.234 0.543,-0.233C0.491,-0.233 0.439,-0.242 0.388,-0.254C0.337,-0.265 0.286,-0.279 0.24,-0.302C0.208,-0.317 0.177,-0.336 0.154,-0.363C0.136,-0.383 0.123,-0.408 0.119,-0.436C0.115,-0.464 0.117,-0.492 0.123,-0.52C0.123,-0.52 0.224,-1.005 0.224,-1.005C0.226,-1.014 0.23,-1.025 0.238,-1.03C0.247,-1.035 0.259,-1.034 0.269,-1.032C0.269,-1.032 0.431,-0.997 0.431,-0.997C0.44,-0.995 0.452,-0.991 0.457,-0.983C0.463,-0.974 0.462,-0.963 0.46,-0.954C0.46,-0.954 0.361,-0.509 0.361,-0.509C0.359,-0.496 0.361,-0.483 0.369,-0.473C0.382,-0.455 0.414,-0.449 0.433,-0.444C0.453,-0.44 0.485,-0.431 0.505,-0.442C0.516,-0.448 0.524,-0.458 0.527,-0.471C0.527,-0.471 0.63,-0.915 0.63,-0.915C0.632,-0.925 0.636,-0.935 0.645,-0.94C0.654,-0.945 0.666,-0.944 0.675,-0.942C0.675,-0.942 0.832,-0.904 0.832,-0.904C0.841,-0.902 0.853,-0.898 0.858,-0.889C0.864,-0.881 0.863,-0.87 0.86,-0.86C0.86,-0.86 0.742,-0.38 0.742,-0.38Z" style="fill:white;fill-rule:nonzero;"/>
                </g>
                <g transform="matrix(18,0,0,18,303.211,360.071)">
                    <path d="M0.739,-0.181C0.731,-0.154 0.719,-0.127 0.702,-0.105C0.686,-0.082 0.663,-0.066 0.637,-0.057C0.604,-0.044 0.568,-0.042 0.533,-0.043C0.481,-0.045 0.429,-0.057 0.379,-0.07C0.328,-0.084 0.278,-0.1 0.232,-0.125C0.201,-0.142 0.171,-0.162 0.149,-0.189C0.132,-0.211 0.12,-0.236 0.117,-0.263C0.114,-0.292 0.117,-0.32 0.124,-0.348C0.124,-0.348 0.246,-0.828 0.246,-0.828C0.248,-0.837 0.252,-0.847 0.261,-0.852C0.27,-0.857 0.282,-0.856 0.291,-0.853C0.291,-0.853 0.453,-0.811 0.453,-0.811C0.462,-0.809 0.473,-0.805 0.479,-0.796C0.484,-0.787 0.483,-0.776 0.48,-0.767C0.48,-0.767 0.363,-0.326 0.363,-0.326C0.359,-0.314 0.362,-0.301 0.369,-0.29C0.381,-0.271 0.412,-0.264 0.432,-0.259C0.452,-0.253 0.483,-0.244 0.503,-0.253C0.515,-0.259 0.524,-0.269 0.527,-0.282C0.527,-0.282 0.649,-0.721 0.649,-0.721C0.651,-0.73 0.656,-0.74 0.665,-0.745C0.674,-0.75 0.686,-0.748 0.695,-0.745C0.695,-0.745 0.85,-0.701 0.85,-0.701C0.86,-0.699 0.871,-0.694 0.876,-0.685C0.881,-0.676 0.88,-0.665 0.877,-0.656C0.877,-0.656 0.739,-0.181 0.739,-0.181Z" style="fill:white;fill-rule:nonzero;"/>
                </g>
            </g>
        </g>
    </g>
    <defs>
        <linearGradient id="_Linear1" x1="0" y1="0" x2="1" y2="0" gradientUnits="userSpaceOnUse" gradientTransform="matrix(-202.489,-68.4134,68.4134,-202.489,602.24,453.67)"><stop offset="0" style="stop-color:rgb(251,175,83);stop-opacity:1"/><stop offset="1" style="stop-color:rgb(252,234,201);stop-opacity:1"/></linearGradient>
        <linearGradient id="_Linear2" x1="0" y1="0" x2="1" y2="0" gradientUnits="userSpaceOnUse" gradientTransform="matrix(0.91153,-12.5873,12.5873,0.91153,457.648,368.664)"><stop offset="0" style="stop-color:black;stop-opacity:1"/><stop offset="1" style="stop-color:rgb(31,7,1);stop-opacity:1"/></linearGradient>
        <linearGradient id="_Linear3" x1="0" y1="0" x2="1" y2="0" gradientUnits="userSpaceOnUse" gradientTransform="matrix(-2.00964,19.3112,-19.3112,-2.00964,556.031,381.847)"><stop offset="0" style="stop-color:rgb(4,1,1);stop-opacity:1"/><stop offset="1" style="stop-color:rgb(33,8,1);stop-opacity:1"/></linearGradient>
        <linearGradient id="_Linear4" x1="0" y1="0" x2="1" y2="0" gradientUnits="userSpaceOnUse" gradientTransform="matrix(-4.0755,-17.0383,17.0383,-4.0755,567.434,372.496)"><stop offset="0" style="stop-color:rgb(5,0,1);stop-opacity:1"/><stop offset="1" style="stop-color:rgb(31,9,0);stop-opacity:1"/></linearGradient>
        <linearGradient id="_Linear5" x1="0" y1="0" x2="1" y2="0" gradientUnits="userSpaceOnUse" gradientTransform="matrix(2.59347,19.4207,-19.4207,2.59347,460.982,382.002)"><stop offset="0" style="stop-color:rgb(2,1,1);stop-opacity:1"/><stop offset="1" style="stop-color:rgb(28,9,2);stop-opacity:1"/></linearGradient>
        <linearGradient id="_Linear6" x1="0" y1="0" x2="1" y2="0" gradientUnits="userSpaceOnUse" gradientTransform="matrix(3.1001,107.992,-107.992,3.1001,509.98,377.828)"><stop offset="0" style="stop-color:rgb(10,1,1);stop-opacity:1"/><stop offset="1" style="stop-color:rgb(40,15,0);stop-opacity:1"/></linearGradient>
    </defs>
</svg>
